<?xml version="1.0" encoding="UTF-8" standalone="no"?>
<!DOCTYPE svg PUBLIC "-//W3C//DTD SVG 1.1//EN"
 "http://www.w3.org/Graphics/SVG/1.1/DTD/svg11.dtd">
<!-- Generated by graphviz version 2.43.0 (0)
 -->
<!-- Title: G Pages: 1 -->
<svg width="337pt" height="305pt"
 viewBox="0.00 0.00 337.03 305.44" xmlns="http://www.w3.org/2000/svg" xmlns:xlink="http://www.w3.org/1999/xlink">
<g id="graph0" class="graph" transform="scale(1 1) rotate(0) translate(4 301.44)">
<title>G</title>
<polygon fill="white" stroke="transparent" points="-4,4 -4,-301.44 333.03,-301.44 333.03,4 -4,4"/>
<!-- system.ruby.network.routers0 -->
<g id="node1" class="node">
<title>system.ruby.network.routers0</title>
<path fill="#cce6fc" stroke="#000000" d="M192.91,-82.29C192.91,-82.29 222.91,-82.29 222.91,-82.29 228.91,-82.29 234.91,-88.29 234.91,-94.29 234.91,-94.29 234.91,-106.29 234.91,-106.29 234.91,-112.29 228.91,-118.29 222.91,-118.29 222.91,-118.29 192.91,-118.29 192.91,-118.29 186.91,-118.29 180.91,-112.29 180.91,-106.29 180.91,-106.29 180.91,-94.29 180.91,-94.29 180.91,-88.29 186.91,-82.29 192.91,-82.29"/>
<text text-anchor="middle" x="207.91" y="-96.59" font-family="Arial" font-size="14.00" fill="#000000">R 0</text>
</g>
<!-- system.ruby.network.routers1 -->
<g id="node2" class="node">
<title>system.ruby.network.routers1</title>
<path fill="#cce6fc" stroke="#000000" d="M197.85,-175.29C197.85,-175.29 227.85,-175.29 227.85,-175.29 233.85,-175.29 239.85,-181.29 239.85,-187.29 239.85,-187.29 239.85,-199.29 239.85,-199.29 239.85,-205.29 233.85,-211.29 227.85,-211.29 227.85,-211.29 197.85,-211.29 197.85,-211.29 191.85,-211.29 185.85,-205.29 185.85,-199.29 185.85,-199.29 185.85,-187.29 185.85,-187.29 185.85,-181.29 191.85,-175.29 197.85,-175.29"/>
<text text-anchor="middle" x="212.85" y="-189.59" font-family="Arial" font-size="14.00" fill="#000000">R 1</text>
</g>
<!-- system.ruby.network.routers0&#45;&#45;system.ruby.network.routers1 -->
<g id="edge1" class="edge">
<title>system.ruby.network.routers0&#45;&#45;system.ruby.network.routers1</title>
<path fill="none" stroke="#042d50" d="M208.88,-118.66C209.59,-131.87 210.54,-149.92 211.34,-164.96"/>
<polygon fill="#042d50" stroke="#042d50" points="207.87,-165.47 211.89,-175.27 214.86,-165.1 207.87,-165.47"/>
</g>
<!-- system.ruby.network.routers2 -->
<g id="node3" class="node">
<title>system.ruby.network.routers2</title>
<path fill="#cce6fc" stroke="#000000" d="M100.25,-86.56C100.25,-86.56 130.25,-86.56 130.25,-86.56 136.25,-86.56 142.25,-92.56 142.25,-98.56 142.25,-98.56 142.25,-110.56 142.25,-110.56 142.25,-116.56 136.25,-122.56 130.25,-122.56 130.25,-122.56 100.25,-122.56 100.25,-122.56 94.25,-122.56 88.25,-116.56 88.25,-110.56 88.25,-110.56 88.25,-98.56 88.25,-98.56 88.25,-92.56 94.25,-86.56 100.25,-86.56"/>
<text text-anchor="middle" x="115.25" y="-100.86" font-family="Arial" font-size="14.00" fill="#000000">R 2</text>
</g>
<!-- system.ruby.network.routers0&#45;&#45;system.ruby.network.routers2 -->
<g id="edge3" class="edge">
<title>system.ruby.network.routers0&#45;&#45;system.ruby.network.routers2</title>
<path fill="none" stroke="#042d50" d="M180.61,-101.55C171.84,-101.95 161.98,-102.41 152.62,-102.84"/>
<polygon fill="#042d50" stroke="#042d50" points="152.18,-99.36 142.36,-103.31 152.51,-106.35 152.18,-99.36"/>
</g>
<!-- system.ruby.network.routers3 -->
<g id="node4" class="node">
<title>system.ruby.network.routers3</title>
<path fill="#cce6fc" stroke="#000000" d="M105,-179.78C105,-179.78 135,-179.78 135,-179.78 141,-179.78 147,-185.78 147,-191.78 147,-191.78 147,-203.78 147,-203.78 147,-209.78 141,-215.78 135,-215.78 135,-215.78 105,-215.78 105,-215.78 99,-215.78 93,-209.78 93,-203.78 93,-203.78 93,-191.78 93,-191.78 93,-185.78 99,-179.78 105,-179.78"/>
<text text-anchor="middle" x="120" y="-194.08" font-family="Arial" font-size="14.00" fill="#000000">R 3</text>
</g>
<!-- system.ruby.network.routers1&#45;&#45;system.ruby.network.routers3 -->
<g id="edge4" class="edge">
<title>system.ruby.network.routers1&#45;&#45;system.ruby.network.routers3</title>
<path fill="none" stroke="#042d50" d="M185.49,-194.61C176.71,-195.03 166.82,-195.51 157.45,-195.97"/>
<polygon fill="#042d50" stroke="#042d50" points="156.98,-192.48 147.16,-196.46 157.32,-199.48 156.98,-192.48"/>
</g>
<!-- system.ruby.network.routers2&#45;&#45;system.ruby.network.routers3 -->
<g id="edge2" class="edge">
<title>system.ruby.network.routers2&#45;&#45;system.ruby.network.routers3</title>
<path fill="none" stroke="#042d50" d="M116.19,-122.98C116.87,-136.21 117.79,-154.31 118.55,-169.39"/>
<polygon fill="#042d50" stroke="#042d50" points="115.08,-169.91 119.08,-179.72 122.07,-169.55 115.08,-169.91"/>
</g>
<!-- system.ruby.l0_cntrl0 -->
<g id="node5" class="node">
<title>system.ruby.l0_cntrl0</title>
<path fill="#e5bcd0" stroke="#000000" d="M266.89,-82.85C266.89,-82.85 310.89,-82.85 310.89,-82.85 316.89,-82.85 322.89,-88.85 322.89,-94.85 322.89,-94.85 322.89,-106.85 322.89,-106.85 322.89,-112.85 316.89,-118.85 310.89,-118.85 310.89,-118.85 266.89,-118.85 266.89,-118.85 260.89,-118.85 254.89,-112.85 254.89,-106.85 254.89,-106.85 254.89,-94.85 254.89,-94.85 254.89,-88.85 260.89,-82.85 266.89,-82.85"/>
<text text-anchor="middle" x="288.89" y="-97.15" font-family="Arial" font-size="14.00" fill="#000000">l0_cntrl0</text>
</g>
<!-- system.ruby.l0_cntrl0&#45;&#45;system.ruby.network.routers0 -->
<g id="edge5" class="edge">
<title>system.ruby.l0_cntrl0&#45;&#45;system.ruby.network.routers0</title>
<path fill="none" stroke="#381526" d="M244.33,-100.54C244.23,-100.54 244.13,-100.54 244.03,-100.54"/>
<polygon fill="#381526" stroke="#381526" points="244.52,-104.04 254.55,-100.61 244.57,-97.04 244.52,-104.04"/>
<polygon fill="#381526" stroke="#381526" points="244.96,-97.05 234.94,-100.48 244.91,-104.04 244.96,-97.05"/>
</g>
<!-- system.ruby.l0_cntrl1 -->
<g id="node6" class="node">
<title>system.ruby.l0_cntrl1</title>
<path fill="#e5bcd0" stroke="#000000" d="M235.77,-249.99C235.77,-249.99 279.77,-249.99 279.77,-249.99 285.77,-249.99 291.77,-255.99 291.77,-261.99 291.77,-261.99 291.77,-273.99 291.77,-273.99 291.77,-279.99 285.77,-285.99 279.77,-285.99 279.77,-285.99 235.77,-285.99 235.77,-285.99 229.77,-285.99 223.77,-279.99 223.77,-273.99 223.77,-273.99 223.77,-261.99 223.77,-261.99 223.77,-255.99 229.77,-249.99 235.77,-249.99"/>
<text text-anchor="middle" x="257.77" y="-264.29" font-family="Arial" font-size="14.00" fill="#000000">l0_cntrl1</text>
</g>
<!-- system.ruby.l0_cntrl1&#45;&#45;system.ruby.network.routers1 -->
<g id="edge6" class="edge">
<title>system.ruby.l0_cntrl1&#45;&#45;system.ruby.network.routers1</title>
<path fill="none" stroke="#381526" d="M241.68,-241.23C237.6,-234.44 233.21,-227.14 229.12,-220.34"/>
<polygon fill="#381526" stroke="#381526" points="238.74,-243.14 246.9,-249.91 244.74,-239.53 238.74,-243.14"/>
<polygon fill="#381526" stroke="#381526" points="231.93,-218.23 223.78,-211.46 225.93,-221.84 231.93,-218.23"/>
</g>
<!-- system.ruby.l0_cntrl2 -->
<g id="node7" class="node">
<title>system.ruby.l0_cntrl2</title>
<path fill="#e5bcd0" stroke="#000000" d="M46.91,-13.23C46.91,-13.23 90.91,-13.23 90.91,-13.23 96.91,-13.23 102.91,-19.23 102.91,-25.23 102.91,-25.23 102.91,-37.23 102.91,-37.23 102.91,-43.23 96.91,-49.23 90.91,-49.23 90.91,-49.23 46.91,-49.23 46.91,-49.23 40.91,-49.23 34.91,-43.23 34.91,-37.23 34.91,-37.23 34.91,-25.23 34.91,-25.23 34.91,-19.23 40.91,-13.23 46.91,-13.23"/>
<text text-anchor="middle" x="68.91" y="-27.53" font-family="Arial" font-size="14.00" fill="#000000">l0_cntrl2</text>
</g>
<!-- system.ruby.l0_cntrl2&#45;&#45;system.ruby.network.routers2 -->
<g id="edge7" class="edge">
<title>system.ruby.l0_cntrl2&#45;&#45;system.ruby.network.routers2</title>
<path fill="none" stroke="#381526" d="M85.84,-58.02C89.94,-64.51 94.32,-71.44 98.41,-77.92"/>
<polygon fill="#381526" stroke="#381526" points="88.66,-55.94 80.36,-49.35 82.75,-59.68 88.66,-55.94"/>
<polygon fill="#381526" stroke="#381526" points="95.47,-79.81 103.77,-86.39 101.38,-76.07 95.47,-79.81"/>
</g>
<!-- system.ruby.l0_cntrl3 -->
<g id="node8" class="node">
<title>system.ruby.l0_cntrl3</title>
<path fill="#e5bcd0" stroke="#000000" d="M105.34,-260.94C105.34,-260.94 149.34,-260.94 149.34,-260.94 155.34,-260.94 161.34,-266.94 161.34,-272.94 161.34,-272.94 161.34,-284.94 161.34,-284.94 161.34,-290.94 155.34,-296.94 149.34,-296.94 149.34,-296.94 105.34,-296.94 105.34,-296.94 99.34,-296.94 93.34,-290.94 93.34,-284.94 93.34,-284.94 93.34,-272.94 93.34,-272.94 93.34,-266.94 99.34,-260.94 105.34,-260.94"/>
<text text-anchor="middle" x="127.34" y="-275.24" font-family="Arial" font-size="14.00" fill="#000000">l0_cntrl3</text>
</g>
<!-- system.ruby.l0_cntrl3&#45;&#45;system.ruby.network.routers3 -->
<g id="edge8" class="edge">
<title>system.ruby.l0_cntrl3&#45;&#45;system.ruby.network.routers3</title>
<path fill="none" stroke="#381526" d="M124.8,-250.87C124.08,-242.84 123.28,-234.09 122.56,-226.06"/>
<polygon fill="#381526" stroke="#381526" points="121.32,-251.28 125.71,-260.93 128.3,-250.65 121.32,-251.28"/>
<polygon fill="#381526" stroke="#381526" points="126.04,-225.66 121.65,-216.02 119.07,-226.3 126.04,-225.66"/>
</g>
<!-- system.ruby.l1_cntrl0 -->
<g id="node9" class="node">
<title>system.ruby.l1_cntrl0</title>
<path fill="#e5bcd0" stroke="#000000" d="M178.4,-0.5C178.4,-0.5 222.4,-0.5 222.4,-0.5 228.4,-0.5 234.4,-6.5 234.4,-12.5 234.4,-12.5 234.4,-24.5 234.4,-24.5 234.4,-30.5 228.4,-36.5 222.4,-36.5 222.4,-36.5 178.4,-36.5 178.4,-36.5 172.4,-36.5 166.4,-30.5 166.4,-24.5 166.4,-24.5 166.4,-12.5 166.4,-12.5 166.4,-6.5 172.4,-0.5 178.4,-0.5"/>
<text text-anchor="middle" x="200.4" y="-14.8" font-family="Arial" font-size="14.00" fill="#000000">l1_cntrl0</text>
</g>
<!-- system.ruby.l1_cntrl0&#45;&#45;system.ruby.network.routers0 -->
<g id="edge9" class="edge">
<title>system.ruby.l1_cntrl0&#45;&#45;system.ruby.network.routers0</title>
<path fill="none" stroke="#381526" d="M203,-46.86C203.75,-55.01 204.56,-63.89 205.31,-72.04"/>
<polygon fill="#381526" stroke="#381526" points="206.46,-46.29 202.06,-36.65 199.49,-46.93 206.46,-46.29"/>
<polygon fill="#381526" stroke="#381526" points="201.84,-72.55 206.24,-82.19 208.82,-71.91 201.84,-72.55"/>
</g>
<!-- system.ruby.l1_cntrl1 -->
<g id="node10" class="node">
<title>system.ruby.l1_cntrl1</title>
<path fill="#e5bcd0" stroke="#000000" d="M273.03,-167.94C273.03,-167.94 317.03,-167.94 317.03,-167.94 323.03,-167.94 329.03,-173.94 329.03,-179.94 329.03,-179.94 329.03,-191.94 329.03,-191.94 329.03,-197.94 323.03,-203.94 317.03,-203.94 317.03,-203.94 273.03,-203.94 273.03,-203.94 267.03,-203.94 261.03,-197.94 261.03,-191.94 261.03,-191.94 261.03,-179.94 261.03,-179.94 261.03,-173.94 267.03,-167.94 273.03,-167.94"/>
<text text-anchor="middle" x="295.03" y="-182.24" font-family="Arial" font-size="14.00" fill="#000000">l1_cntrl1</text>
</g>
<!-- system.ruby.l1_cntrl1&#45;&#45;system.ruby.network.routers1 -->
<g id="edge10" class="edge">
<title>system.ruby.l1_cntrl1&#45;&#45;system.ruby.network.routers1</title>
<path fill="none" stroke="#381526" d="M250.59,-189.91C250.48,-189.92 250.37,-189.93 250.26,-189.94"/>
<polygon fill="#381526" stroke="#381526" points="251,-193.39 260.65,-189.01 250.38,-186.42 251,-193.39"/>
<polygon fill="#381526" stroke="#381526" points="249.74,-186.47 240.09,-190.85 250.36,-193.44 249.74,-186.47"/>
</g>
<!-- system.ruby.l1_cntrl2 -->
<g id="node11" class="node">
<title>system.ruby.l1_cntrl2</title>
<path fill="#e5bcd0" stroke="#000000" d="M92.37,-3.99C92.37,-3.99 136.37,-3.99 136.37,-3.99 142.37,-3.99 148.37,-9.99 148.37,-15.99 148.37,-15.99 148.37,-27.99 148.37,-27.99 148.37,-33.99 142.37,-39.99 136.37,-39.99 136.37,-39.99 92.37,-39.99 92.37,-39.99 86.37,-39.99 80.37,-33.99 80.37,-27.99 80.37,-27.99 80.37,-15.99 80.37,-15.99 80.37,-9.99 86.37,-3.99 92.37,-3.99"/>
<text text-anchor="middle" x="114.37" y="-18.29" font-family="Arial" font-size="14.00" fill="#000000">l1_cntrl2</text>
</g>
<!-- system.ruby.l1_cntrl2&#45;&#45;system.ruby.network.routers2 -->
<g id="edge11" class="edge">
<title>system.ruby.l1_cntrl2&#45;&#45;system.ruby.network.routers2</title>
<path fill="none" stroke="#381526" d="M114.68,-50.62C114.77,-58.85 114.86,-67.82 114.95,-76.04"/>
<polygon fill="#381526" stroke="#381526" points="118.17,-50.27 114.57,-40.31 111.18,-50.35 118.17,-50.27"/>
<polygon fill="#381526" stroke="#381526" points="111.45,-76.33 115.06,-86.29 118.45,-76.25 111.45,-76.33"/>
</g>
<!-- system.ruby.l1_cntrl3 -->
<g id="node12" class="node">
<title>system.ruby.l1_cntrl3</title>
<path fill="#e5bcd0" stroke="#000000" d="M22.09,-225.06C22.09,-225.06 66.09,-225.06 66.09,-225.06 72.09,-225.06 78.09,-231.06 78.09,-237.06 78.09,-237.06 78.09,-249.06 78.09,-249.06 78.09,-255.06 72.09,-261.06 66.09,-261.06 66.09,-261.06 22.09,-261.06 22.09,-261.06 16.09,-261.06 10.09,-255.06 10.09,-249.06 10.09,-249.06 10.09,-237.06 10.09,-237.06 10.09,-231.06 16.09,-225.06 22.09,-225.06"/>
<text text-anchor="middle" x="44.09" y="-239.36" font-family="Arial" font-size="14.00" fill="#000000">l1_cntrl3</text>
</g>
<!-- system.ruby.l1_cntrl3&#45;&#45;system.ruby.network.routers3 -->
<g id="edge12" class="edge">
<title>system.ruby.l1_cntrl3&#45;&#45;system.ruby.network.routers3</title>
<path fill="none" stroke="#381526" d="M83.22,-219.72C83.53,-219.53 83.84,-219.35 84.15,-219.16"/>
<polygon fill="#381526" stroke="#381526" points="81.33,-216.77 74.53,-224.9 84.91,-222.79 81.33,-216.77"/>
<polygon fill="#381526" stroke="#381526" points="86.19,-222.02 92.99,-213.89 82.61,-216.01 86.19,-222.02"/>
</g>
<!-- system.ruby.l2_cntrl0 -->
<g id="node13" class="node">
<title>system.ruby.l2_cntrl0</title>
<path fill="#e5bcd0" stroke="#000000" d="M261.3,-37.07C261.3,-37.07 305.3,-37.07 305.3,-37.07 311.3,-37.07 317.3,-43.07 317.3,-49.07 317.3,-49.07 317.3,-61.07 317.3,-61.07 317.3,-67.07 311.3,-73.07 305.3,-73.07 305.3,-73.07 261.3,-73.07 261.3,-73.07 255.3,-73.07 249.3,-67.07 249.3,-61.07 249.3,-61.07 249.3,-49.07 249.3,-49.07 249.3,-43.07 255.3,-37.07 261.3,-37.07"/>
<text text-anchor="middle" x="283.3" y="-51.37" font-family="Arial" font-size="14.00" fill="#000000">l2_cntrl0</text>
</g>
<!-- system.ruby.l2_cntrl0&#45;&#45;system.ruby.network.routers0 -->
<g id="edge13" class="edge">
<title>system.ruby.l2_cntrl0&#45;&#45;system.ruby.network.routers0</title>
<path fill="none" stroke="#381526" d="M244.39,-78.41C244.19,-78.52 244,-78.64 243.81,-78.76"/>
<polygon fill="#381526" stroke="#381526" points="246.29,-81.35 253.07,-73.2 242.69,-75.34 246.29,-81.35"/>
<polygon fill="#381526" stroke="#381526" points="241.99,-75.76 235.22,-83.91 245.59,-81.76 241.99,-75.76"/>
</g>
<!-- system.ruby.l2_cntrl1 -->
<g id="node14" class="node">
<title>system.ruby.l2_cntrl1</title>
<path fill="#e5bcd0" stroke="#000000" d="M268.64,-214.07C268.64,-214.07 312.64,-214.07 312.64,-214.07 318.64,-214.07 324.64,-220.07 324.64,-226.07 324.64,-226.07 324.64,-238.07 324.64,-238.07 324.64,-244.07 318.64,-250.07 312.64,-250.07 312.64,-250.07 268.64,-250.07 268.64,-250.07 262.64,-250.07 256.64,-244.07 256.64,-238.07 256.64,-238.07 256.64,-226.07 256.64,-226.07 256.64,-220.07 262.64,-214.07 268.64,-214.07"/>
<text text-anchor="middle" x="290.64" y="-228.37" font-family="Arial" font-size="14.00" fill="#000000">l2_cntrl1</text>
</g>
<!-- system.ruby.l2_cntrl1&#45;&#45;system.ruby.network.routers1 -->
<g id="edge14" class="edge">
<title>system.ruby.l2_cntrl1&#45;&#45;system.ruby.network.routers1</title>
<path fill="none" stroke="#381526" d="M247.19,-210.41C247.05,-210.33 246.9,-210.26 246.75,-210.19"/>
<polygon fill="#381526" stroke="#381526" points="245.79,-213.61 256.3,-214.94 248.91,-207.35 245.79,-213.61"/>
<polygon fill="#381526" stroke="#381526" points="250.75,-208.27 240.24,-206.94 247.63,-214.54 250.75,-208.27"/>
</g>
<!-- system.ruby.l2_cntrl2 -->
<g id="node15" class="node">
<title>system.ruby.l2_cntrl2</title>
<path fill="#e5bcd0" stroke="#000000" d="M12,-95.28C12,-95.28 56,-95.28 56,-95.28 62,-95.28 68,-101.28 68,-107.28 68,-107.28 68,-119.28 68,-119.28 68,-125.28 62,-131.28 56,-131.28 56,-131.28 12,-131.28 12,-131.28 6,-131.28 0,-125.28 0,-119.28 0,-119.28 0,-107.28 0,-107.28 0,-101.28 6,-95.28 12,-95.28"/>
<text text-anchor="middle" x="34" y="-109.58" font-family="Arial" font-size="14.00" fill="#000000">l2_cntrl2</text>
</g>
<!-- system.ruby.l2_cntrl2&#45;&#45;system.ruby.network.routers2 -->
<g id="edge15" class="edge">
<title>system.ruby.l2_cntrl2&#45;&#45;system.ruby.network.routers2</title>
<path fill="none" stroke="#381526" d="M78.71,-108.49C78.81,-108.47 78.91,-108.46 79.01,-108.45"/>
<polygon fill="#381526" stroke="#381526" points="78.03,-105.04 68.46,-109.59 78.78,-112 78.03,-105.04"/>
<polygon fill="#381526" stroke="#381526" points="78.56,-112.02 88.13,-107.47 77.82,-105.06 78.56,-112.02"/>
</g>
<!-- system.ruby.l2_cntrl3 -->
<g id="node16" class="node">
<title>system.ruby.l2_cntrl3</title>
<path fill="#e5bcd0" stroke="#000000" d="M17.51,-179.42C17.51,-179.42 61.51,-179.42 61.51,-179.42 67.51,-179.42 73.51,-185.42 73.51,-191.42 73.51,-191.42 73.51,-203.42 73.51,-203.42 73.51,-209.42 67.51,-215.42 61.51,-215.42 61.51,-215.42 17.51,-215.42 17.51,-215.42 11.51,-215.42 5.51,-209.42 5.51,-203.42 5.51,-203.42 5.51,-191.42 5.51,-191.42 5.51,-185.42 11.51,-179.42 17.51,-179.42"/>
<text text-anchor="middle" x="39.51" y="-193.72" font-family="Arial" font-size="14.00" fill="#000000">l2_cntrl3</text>
</g>
<!-- system.ruby.l2_cntrl3&#45;&#45;system.ruby.network.routers3 -->
<g id="edge16" class="edge">
<title>system.ruby.l2_cntrl3&#45;&#45;system.ruby.network.routers3</title>
<path fill="none" stroke="#381526" d="M83.83,-197.62C83.92,-197.62 84.02,-197.62 84.11,-197.62"/>
<polygon fill="#381526" stroke="#381526" points="83.66,-194.12 73.64,-197.57 83.63,-201.12 83.66,-194.12"/>
<polygon fill="#381526" stroke="#381526" points="82.63,-201.11 92.64,-197.66 82.66,-194.11 82.63,-201.11"/>
</g>
<!-- system.ruby.dir_cntrl0 -->
<g id="node17" class="node">
<title>system.ruby.dir_cntrl0</title>
<path fill="#e5bcd0" stroke="#000000" d="M222.48,-4.46C222.48,-4.46 270.48,-4.46 270.48,-4.46 276.48,-4.46 282.48,-10.46 282.48,-16.46 282.48,-16.46 282.48,-28.46 282.48,-28.46 282.48,-34.46 276.48,-40.46 270.48,-40.46 270.48,-40.46 222.48,-40.46 222.48,-40.46 216.48,-40.46 210.48,-34.46 210.48,-28.46 210.48,-28.46 210.48,-16.46 210.48,-16.46 210.48,-10.46 216.48,-4.46 222.48,-4.46"/>
<text text-anchor="middle" x="246.48" y="-18.76" font-family="Arial" font-size="14.00" fill="#000000">dir_cntrl0</text>
</g>
<!-- system.ruby.dir_cntrl0&#45;&#45;system.ruby.network.routers0 -->
<g id="edge17" class="edge">
<title>system.ruby.dir_cntrl0&#45;&#45;system.ruby.network.routers0</title>
<path fill="none" stroke="#381526" d="M233.06,-49.53C229.31,-57.1 225.24,-65.32 221.48,-72.9"/>
<polygon fill="#381526" stroke="#381526" points="236.23,-51.03 237.53,-40.51 229.95,-47.92 236.23,-51.03"/>
<polygon fill="#381526" stroke="#381526" points="218.24,-71.55 216.94,-82.07 224.51,-74.66 218.24,-71.55"/>
</g>
<!-- system.ruby.dir_cntrl1 -->
<g id="node18" class="node">
<title>system.ruby.dir_cntrl1</title>
<path fill="#e5bcd0" stroke="#000000" d="M188.3,-257.27C188.3,-257.27 236.3,-257.27 236.3,-257.27 242.3,-257.27 248.3,-263.27 248.3,-269.27 248.3,-269.27 248.3,-281.27 248.3,-281.27 248.3,-287.27 242.3,-293.27 236.3,-293.27 236.3,-293.27 188.3,-293.27 188.3,-293.27 182.3,-293.27 176.3,-287.27 176.3,-281.27 176.3,-281.27 176.3,-269.27 176.3,-269.27 176.3,-263.27 182.3,-257.27 188.3,-257.27"/>
<text text-anchor="middle" x="212.3" y="-271.57" font-family="Arial" font-size="14.00" fill="#000000">dir_cntrl1</text>
</g>
<!-- system.ruby.dir_cntrl1&#45;&#45;system.ruby.network.routers1 -->
<g id="edge18" class="edge">
<title>system.ruby.dir_cntrl1&#45;&#45;system.ruby.network.routers1</title>
<path fill="none" stroke="#381526" d="M212.49,-246.84C212.54,-238.67 212.6,-229.77 212.66,-221.61"/>
<polygon fill="#381526" stroke="#381526" points="208.99,-247.05 212.42,-257.08 215.99,-247.1 208.99,-247.05"/>
<polygon fill="#381526" stroke="#381526" points="216.16,-221.45 212.73,-211.43 209.16,-221.41 216.16,-221.45"/>
</g>
<!-- system.ruby.dir_cntrl2 -->
<g id="node19" class="node">
<title>system.ruby.dir_cntrl2</title>
<path fill="#e5bcd0" stroke="#000000" d="M12.09,-49.35C12.09,-49.35 60.09,-49.35 60.09,-49.35 66.09,-49.35 72.09,-55.35 72.09,-61.35 72.09,-61.35 72.09,-73.35 72.09,-73.35 72.09,-79.35 66.09,-85.35 60.09,-85.35 60.09,-85.35 12.09,-85.35 12.09,-85.35 6.09,-85.35 0.09,-79.35 0.09,-73.35 0.09,-73.35 0.09,-61.35 0.09,-61.35 0.09,-55.35 6.09,-49.35 12.09,-49.35"/>
<text text-anchor="middle" x="36.09" y="-63.65" font-family="Arial" font-size="14.00" fill="#000000">dir_cntrl2</text>
</g>
<!-- system.ruby.dir_cntrl2&#45;&#45;system.ruby.network.routers2 -->
<g id="edge19" class="edge">
<title>system.ruby.dir_cntrl2&#45;&#45;system.ruby.network.routers2</title>
<path fill="none" stroke="#381526" d="M81.7,-88.79C81.83,-88.85 81.96,-88.91 82.09,-88.97"/>
<polygon fill="#381526" stroke="#381526" points="82.97,-85.52 72.43,-84.43 79.99,-91.85 82.97,-85.52"/>
<polygon fill="#381526" stroke="#381526" points="77.36,-90.62 87.9,-91.7 80.34,-84.28 77.36,-90.62"/>
</g>
<!-- system.ruby.dir_cntrl3 -->
<g id="node20" class="node">
<title>system.ruby.dir_cntrl3</title>
<path fill="#e5bcd0" stroke="#000000" d="M57.2,-258.42C57.2,-258.42 105.2,-258.42 105.2,-258.42 111.2,-258.42 117.2,-264.42 117.2,-270.42 117.2,-270.42 117.2,-282.42 117.2,-282.42 117.2,-288.42 111.2,-294.42 105.2,-294.42 105.2,-294.42 57.2,-294.42 57.2,-294.42 51.2,-294.42 45.2,-288.42 45.2,-282.42 45.2,-282.42 45.2,-270.42 45.2,-270.42 45.2,-264.42 51.2,-258.42 57.2,-258.42"/>
<text text-anchor="middle" x="81.2" y="-272.72" font-family="Arial" font-size="14.00" fill="#000000">dir_cntrl3</text>
</g>
<!-- system.ruby.dir_cntrl3&#45;&#45;system.ruby.network.routers3 -->
<g id="edge20" class="edge">
<title>system.ruby.dir_cntrl3&#45;&#45;system.ruby.network.routers3</title>
<path fill="none" stroke="#381526" d="M94.73,-249C98.57,-241.21 102.75,-232.73 106.59,-224.96"/>
<polygon fill="#381526" stroke="#381526" points="91.48,-247.66 90.2,-258.18 97.76,-250.76 91.48,-247.66"/>
<polygon fill="#381526" stroke="#381526" points="109.76,-226.43 111.05,-215.92 103.49,-223.34 109.76,-226.43"/>
</g>
</g>
</svg>
